<?xml version="1.0" encoding="UTF-8"?>
<svg version="1.1" xmlns="http://www.w3.org/2000/svg" width="626" height="626">
<path d="M0 0 C206.58 0 413.16 0 626 0 C626 206.58 626 413.16 626 626 C419.42 626 212.84 626 0 626 C0 419.42 0 212.84 0 0 Z " fill="#F1F1F1" transform="translate(0,0)"/>
<path d="M0 0 C2.31 0 4.62 0 7 0 C7.33 12.54 7.66 25.08 8 38 C10.97 34.04 13.94 30.08 17 26 C24.9362266 18.0637734 33.15771923 13.93076428 44.4375 13.6875 C60.48243162 13.83729708 74.31764697 21.38198282 86 32 C86 32.33 86 32.66 86 33 C84.7625 33.165 83.525 33.33 82.25 33.5 C76.69805047 34.72507807 72.73045669 37.60703671 68.125 40.83203125 C57.25972306 48.36981713 47.53459442 53.65257563 34 52 C29.81051356 50.68287004 25.9307063 48.94796064 22 47 C21.31164062 46.67 20.62328125 46.34 19.9140625 46 C18.59747288 45.35715812 17.29575312 44.6838697 16 44 C16 43.34 16 42.68 16 42 C24.29257751 34.30740225 35.24652746 33.27266939 46 32 C32.61721686 31.43519321 22.50399925 32.22149955 11.36328125 40.4375 C9.56170865 42.15673463 9.56170865 42.15673463 10 46 C10.825 46.061875 11.65 46.12375 12.5 46.1875 C21.04775111 48.17179936 26.96667049 54.04008545 32 61 C37.84521694 70.54758449 40.73198165 80.15295572 43 91 C41.96552734 91.74830078 41.96552734 91.74830078 40.91015625 92.51171875 C28.83904959 101.73477281 20.37228881 113.66798531 18 129 C16.84913205 146.52376278 19.86877539 161.38822548 31.3125 175.375 C43.94114538 188.70523679 60.33073117 192.86390488 78 194 C79.3064712 215.57129113 72.29149065 233.90311937 58.05859375 250.2265625 C49.67881051 258.99570941 40.0398718 264.2208976 29 269 C27.99453125 269.49693359 27.99453125 269.49693359 26.96875 270.00390625 C13.2880711 276.68291694 -8.49191508 273.95347387 -22.375 269.3125 C-41.61412332 261.79721745 -57.16400973 248.80679662 -65.8359375 229.72265625 C-66.22007812 228.82417969 -66.60421875 227.92570313 -67 227 C-67.46664062 226.02933594 -67.93328125 225.05867187 -68.4140625 224.05859375 C-74.64720324 209.03289414 -75.01100003 187.63091499 -69.5234375 172.296875 C-66.0076399 164.68832839 -62.03161627 157.34435693 -58 150 C-48.09283327 131.82328563 -42.64087299 112.7273634 -38.015625 92.63085938 C-34.1384408 76.09441662 -28.53633163 59.15729411 -14 49 C-11.40619258 47.56788313 -8.79953437 46.26666188 -6.1015625 45.04296875 C-3.85423159 44.06693287 -3.85423159 44.06693287 -2 42 C-1.76601605 38.93030407 -1.65036561 35.94421855 -1.62109375 32.87109375 C-1.60409927 31.96625748 -1.5871048 31.0614212 -1.56959534 30.12916565 C-1.5163502 27.23201508 -1.47611254 24.33487973 -1.4375 21.4375 C-1.39363811 18.53662307 -1.34699052 15.63586008 -1.29469299 12.73512268 C-1.26262642 10.92786676 -1.23577097 9.12050987 -1.21446228 7.31309509 C-1.11173191 1.11173191 -1.11173191 1.11173191 0 0 Z " fill="#1D6757" transform="translate(306,176)"/>
<path d="M0 0 C0.99 0.66 1.98 1.32 3 2 C1.87722656 2.10957031 0.75445312 2.21914062 -0.40234375 2.33203125 C-15.30475592 3.66600612 -15.30475592 3.66600612 -28 11 C-28.66 11 -29.32 11 -30 11 C-30 11.66 -30 12.32 -30 13 C-28.824375 13.37125 -28.824375 13.37125 -27.625 13.75 C-23.01598671 15.33931493 -18.51452284 17.16207173 -14 19 C-14.66 19.33 -15.32 19.66 -16 20 C-16 21.65 -16 23.3 -16 25 C-19.5262373 25 -19.68523476 24.6097424 -22.0625 22.25 C-25.68295682 18.94739913 -29.32748548 17.52451367 -33.9609375 16.0546875 C-36 15 -36 15 -36.7890625 12.8828125 C-36.85867188 12.26148438 -36.92828125 11.64015625 -37 11 C-25.66739718 1.03850221 -14.75302803 -1.36719872 0 0 Z " fill="#E6E7EC" transform="translate(352,207)"/>
<path d="M0 0 C1.13791992 -0.01160156 1.13791992 -0.01160156 2.29882812 -0.0234375 C6.15600994 -0.00981991 8.03341189 0.06394126 11.3125 2.25 C10.15492188 2.38277344 8.99734375 2.51554688 7.8046875 2.65234375 C6.26561592 2.83065082 4.72655393 3.00904062 3.1875 3.1875 C2.04667969 3.31801758 2.04667969 3.31801758 0.8828125 3.45117188 C-2.48682049 3.84332744 -5.78992078 4.26955306 -9.125 4.90625 C-10.3934375 5.07640625 -10.3934375 5.07640625 -11.6875 5.25 C-13.5625 3.8125 -13.5625 3.8125 -14.6875 2.25 C-9.65068486 0.23207088 -5.332832 -0.05521483 0 0 Z " fill="#CDDADD" transform="translate(343.6875,206.75)"/>
<path d="M0 0 C0 3.51716303 -0.82445585 4.37121748 -3 7 C-2.01 7.33 -1.02 7.66 0 8 C-1.32 8 -2.64 8 -4 8 C-4.33 6.68 -4.66 5.36 -5 4 C-3.35 2.68 -1.7 1.36 0 0 Z " fill="#D8E0E2" transform="translate(320,214)"/>
<path d="M0 0 C0.99 0.66 1.98 1.32 3 2 C3 4 3 4 1 6.125 C0.34 6.74375 -0.32 7.3625 -1 8 C-1.66 7.67 -2.32 7.34 -3 7 C-2.01 4.69 -1.02 2.38 0 0 Z " fill="#346F5E" transform="translate(277,242)"/>
<path d="M0 0 C0.66 0.33 1.32 0.66 2 1 C2 3.31 2 5.62 2 8 C1.67 7.34 1.34 6.68 1 6 C0.34 6 -0.32 6 -1 6 C-1.042721 4.33388095 -1.04063832 2.66617115 -1 1 C-0.67 0.67 -0.34 0.34 0 0 Z " fill="#2B7059" transform="translate(235,358)"/>
</svg>
